<svg width="115" height="83" viewBox="0 0 115 83" fill="none" xmlns="http://www.w3.org/2000/svg">
<path d="M34.9703 41.5642C34.9937 41.8896 34.9705 42.1366 34.9007 42.3051C34.8279 42.433 34.6314 42.5493 34.3112 42.6541C33.9531 42.8025 33.4946 42.9786 32.9356 43.1823C32.4144 43.3425 31.8336 43.5274 31.1931 43.737C30.5497 43.9059 29.8859 44.0763 29.2017 44.2482C28.5553 44.3765 27.9468 44.4611 27.3761 44.5022C26.6831 44.552 25.9057 44.5671 25.0438 44.5473C24.2227 44.5247 23.419 44.4598 22.6328 44.3529C21.8437 44.2053 21.1157 44.0532 20.4488 43.8968C19.8198 43.6968 19.351 43.4443 19.0422 43.1395C19.3075 43.9789 19.5524 44.8198 19.7769 45.6622C20.0014 46.5045 20.1851 47.3498 20.3281 48.198C20.3427 48.4014 20.2947 48.5888 20.1842 48.7603C20.1114 48.8881 19.8508 48.9682 19.4024 49.0005C19.1986 49.0151 18.9919 48.9891 18.7822 48.9225C18.6104 48.8122 18.4516 48.5988 18.3059 48.2822C17.8805 47.4952 17.5207 46.7648 17.2263 46.091C16.9291 45.3765 16.6522 44.6605 16.3957 43.9431C16.18 43.2228 15.941 42.4632 15.6786 41.6645C15.4163 40.8657 15.1073 39.9886 14.7518 39.033C14.1892 37.4791 13.599 35.825 12.9811 34.0707C12.3603 32.2757 11.7875 30.5795 11.2628 28.982C10.7352 27.3438 10.3038 25.9031 9.96847 24.6599C9.63025 23.3761 9.44212 22.4698 9.40408 21.9411C9.38652 21.697 9.36311 21.3717 9.33385 20.965C9.34535 20.5553 9.3787 20.1646 9.43389 19.7926C9.52692 19.3771 9.64618 19.0415 9.79167 18.7858C9.97501 18.4864 10.2297 18.325 10.5558 18.3015C10.7596 18.2869 10.9869 18.5976 11.2375 19.2336C11.526 19.8261 11.7795 20.5028 11.9982 21.2638C12.2547 21.9812 12.4689 22.6813 12.641 23.3639C12.8509 24.0029 12.9573 24.3427 12.9602 24.3834C13.1876 25.2664 13.4427 26.2496 13.7256 27.3331C14.0462 28.3729 14.3684 29.4331 14.6919 30.5136C15.0155 31.5941 15.3566 32.6325 15.7151 33.6287C16.0706 34.5843 16.4364 35.396 16.8122 36.064C16.8237 35.6543 16.9239 35.0543 17.1129 34.264C17.3019 33.4737 17.568 32.6164 17.9113 31.6924C18.2545 30.7683 18.6371 29.8209 19.059 28.8503C19.5186 27.8361 19.9857 26.9235 20.46 26.1127C20.9751 25.2989 21.48 24.6289 21.9748 24.1027C22.5104 23.5736 23.0228 23.2914 23.5119 23.2562C24.2864 23.2005 24.8237 23.2641 25.1236 23.4469C25.4644 23.6268 25.645 23.8591 25.6655 24.1438C25.683 24.3878 25.3716 24.9008 24.7313 25.6827C24.0881 26.424 23.3809 27.4151 22.6097 28.6561C21.8357 29.8565 21.1592 31.2747 20.5803 32.9107C19.9985 34.5061 19.7764 36.2595 19.914 38.171C19.9637 38.8624 20.191 39.4593 20.5959 39.9616C21.0387 40.4203 21.5775 40.7904 22.2124 41.0718C22.888 41.3502 23.6204 41.5632 24.4095 41.7109C25.2365 41.8149 26.0372 41.839 26.8117 41.7833C27.5047 41.7334 28.2573 41.6588 29.0697 41.5595C29.882 41.4602 30.6332 41.3653 31.3233 41.2747C32.0511 41.1406 32.6582 41.0356 33.1444 40.9597C33.6714 40.8809 33.9961 40.8371 34.1184 40.8283C34.3222 40.8137 34.51 40.8615 34.6818 40.9718C34.8537 41.082 34.9498 41.2795 34.9703 41.5642Z" fill="white"/>
<path d="M48.0928 33.936C48.1572 34.8307 48.0963 35.6936 47.9103 36.5246C47.7242 37.3557 47.4493 38.0909 47.0856 38.7302C46.7218 39.3696 46.2678 39.8929 45.7234 40.3C45.2169 40.6635 44.6376 40.8687 43.9854 40.9156C42.844 40.9977 41.9238 40.7369 41.2248 40.1331C40.5257 39.5293 39.962 38.8135 39.5337 37.9858C39.1462 37.1552 38.8605 36.3173 38.6768 35.472C38.5309 34.5831 38.4418 33.915 38.4096 33.4676C38.357 32.7355 38.4004 31.9148 38.5398 31.0053C38.7171 30.0523 38.9613 29.1762 39.2726 28.3771C39.6246 27.575 40.0262 26.892 40.4773 26.3281C40.9285 25.7642 41.419 25.4632 41.9489 25.4251C42.0712 25.4163 42.2576 25.4437 42.508 25.5075C42.7992 25.5683 43.0933 25.6698 43.3903 25.8119C43.6874 25.9541 43.9466 26.1398 44.168 26.3692C44.4301 26.5956 44.6137 26.8686 44.7186 27.1881C45.1699 27.1965 45.63 27.3269 46.0989 27.5793C46.5678 27.8318 46.8285 28.0379 46.8809 28.1976C47.2831 29.2316 47.563 30.2744 47.7206 31.3259C47.919 32.3746 48.043 33.2446 48.0928 33.936ZM45.2623 33.0359C45.2184 32.4258 45.1119 31.7998 44.9428 31.1579C44.7707 30.4753 44.4764 29.8015 44.0598 29.1365C43.9812 29.183 43.8807 29.2107 43.7584 29.2195C43.5954 29.2312 43.4513 29.2211 43.326 29.1892C43.2416 29.1544 43.1586 29.14 43.0771 29.1458C42.5879 29.181 42.2109 29.3512 41.946 29.6565C41.6783 29.921 41.4789 30.2829 41.3481 30.742C41.255 31.1575 41.2057 31.6107 41.2001 32.1017C41.1944 32.5927 41.2077 33.0619 41.2399 33.5092C41.2721 33.9566 41.329 34.4635 41.4107 35.03C41.4895 35.5558 41.6077 36.0583 41.7651 36.5375C41.9632 37.0139 42.1978 37.4262 42.4687 37.7747C42.7367 38.0824 43.0745 38.2217 43.4821 38.1923C43.8897 38.163 44.2216 37.9347 44.4777 37.5075C44.7308 37.0396 44.9185 36.5151 45.0405 35.9339C45.1626 35.3528 45.225 34.7964 45.2278 34.2648C45.2683 33.6895 45.2798 33.2799 45.2623 33.0359Z" fill="white"/>
<path d="M68.4115 37.6251C68.4612 38.3165 68.2605 38.9442 67.8094 39.5081C67.3961 40.0284 66.8358 40.498 66.1284 40.9168C65.4588 41.292 64.7033 41.6121 63.8619 41.877C63.0205 42.142 62.217 42.3633 61.4512 42.5411C60.6826 42.6781 59.994 42.789 59.3855 42.8737C58.8148 42.9147 58.4479 42.9411 58.2849 42.9529C57.3881 43.0174 56.6849 42.9249 56.1752 42.6754C55.6656 42.4259 55.3844 41.9351 55.3318 41.203C55.3142 40.959 55.3199 40.7542 55.349 40.5886C55.3751 40.3823 55.5309 40.2689 55.8162 40.2483C55.9385 40.2395 56.1453 40.2656 56.4364 40.3264C56.7247 40.3465 56.9504 40.3507 57.1134 40.339C57.2765 40.3272 57.7846 40.2703 58.6377 40.168C59.5286 40.0221 60.4574 39.8327 61.424 39.5996C62.4314 39.3636 63.3121 39.0754 64.0661 38.7349C64.8579 38.3509 65.2363 37.9149 65.2012 37.4268C65.1953 37.3455 64.7498 37.1323 63.8645 36.7871C63.017 36.3984 61.7211 35.7558 59.9766 34.8593C58.6137 34.1397 57.638 33.3923 57.0495 32.617C56.4582 31.8011 56.1113 30.6813 56.0088 29.2579C55.9445 28.3631 56.0752 27.6178 56.4011 27.0221C56.7678 26.4233 57.2655 25.9378 57.8943 25.5655C58.5639 25.1903 59.3223 24.9109 60.1696 24.7273C61.0546 24.5001 61.9863 24.3513 62.9647 24.2809C63.0462 24.275 63.2937 24.2981 63.7072 24.3501C64.1614 24.3992 64.6405 24.5078 65.1442 24.676C65.6451 24.8035 66.0892 24.9964 66.4766 25.2547C66.9018 25.4694 67.1261 25.7394 67.1495 26.0648C67.1553 26.1461 67.0826 26.274 66.9312 26.4484C66.8206 26.6199 66.6184 26.941 66.3245 27.4119C66.1993 27.38 65.9707 27.3351 65.6387 27.2773C65.3475 27.2164 64.9952 27.16 64.5817 27.108C64.206 27.0124 63.8129 26.9589 63.4024 26.9476C62.9889 26.8956 62.6599 26.8784 62.4153 26.896C61.3554 26.9722 60.514 27.2372 59.8911 27.6908C59.2652 28.1038 58.9918 28.8593 59.0708 29.9574C59.1088 30.4861 59.3478 30.9595 59.7876 31.3775C60.2682 31.7927 60.8492 32.1801 61.5307 32.5399C62.2092 32.859 62.93 33.1955 63.693 33.5494C64.4938 33.8597 65.2365 34.2151 65.9209 34.6156C66.6053 35.016 67.1703 35.4659 67.616 35.9653C68.0995 36.4211 68.3646 36.9744 68.4115 37.6251Z" fill="white"/>
<path d="M92.976 32.6077C93.1944 32.7963 93.3051 32.911 93.308 32.9517C93.3139 33.033 93.2091 33.2859 92.9938 33.7102C92.8193 34.1315 92.5647 34.5791 92.23 35.0529C91.8953 35.5267 91.5169 35.9627 91.0949 36.361C90.7106 36.7157 90.3147 36.9077 89.9071 36.937C89.051 36.9986 88.3464 36.8858 87.793 36.5986C87.2368 36.2706 86.7562 35.8555 86.3513 35.3532C85.9871 34.8479 85.6812 34.2976 85.4335 33.7022C85.2236 33.0632 85.0371 32.4634 84.8738 31.9028C84.7718 31.624 84.68 31.4875 84.5985 31.4934C84.4762 31.5022 84.2638 31.9672 83.9613 32.8883C83.6559 33.7688 83.317 34.7539 82.9447 35.8436C82.6102 36.8897 82.2714 37.8748 81.9281 38.7989C81.6227 39.6793 81.4088 40.124 81.2866 40.1328C80.5528 40.1856 79.899 39.926 79.3252 39.3541C78.7892 38.7385 78.3289 38.0358 77.9443 37.2458C77.5975 36.4123 77.3119 35.5743 77.0874 34.732C76.8599 33.849 76.7083 33.1649 76.6324 32.6798C76.4311 31.5905 76.0345 29.7793 75.4425 27.2464C74.8505 24.7135 74.2801 21.6271 73.7314 17.9873C73.5943 17.2204 73.4427 16.5363 73.2765 15.9351C73.1481 15.2902 72.995 14.5858 72.8171 13.8219C72.6392 13.0579 72.4744 12.1908 72.3227 11.2206C72.1709 10.2504 72.0438 9.05351 71.9414 7.63004C71.9355 7.5487 71.9369 7.28287 71.9455 6.83256C71.9541 6.38225 71.9801 5.8898 72.0236 5.35522C72.0671 4.82063 72.1557 4.34412 72.2895 3.92568C72.464 3.50431 72.6736 3.28483 72.9182 3.26723C73.2035 3.2467 73.4817 3.41065 73.7526 3.75909C74.0206 4.06686 74.2522 4.43857 74.4474 4.87421C74.6834 5.30693 74.8568 5.72371 74.9676 6.12455C75.0784 6.52539 75.1397 6.80715 75.1514 6.96983C75.1953 7.57989 75.1955 8.15221 75.152 8.6868C75.1085 9.22139 75.1028 9.71237 75.135 10.1597C75.1789 10.7698 75.2753 11.5396 75.4241 12.4692C75.6137 13.3958 75.8251 14.3413 76.0584 15.3057C76.2917 16.27 76.5031 17.2155 76.6927 18.1421C76.8794 19.0281 77.034 19.7528 77.1565 20.3164C77.1594 20.357 77.2206 20.6388 77.3402 21.1617C77.4598 21.6845 77.5896 22.3497 77.7296 23.1573C77.9075 23.9212 78.0709 24.768 78.2197 25.6975C78.4064 26.5835 78.5931 27.4694 78.7797 28.3554C78.9635 29.2007 79.121 29.9661 79.2522 30.6516C79.4214 31.2936 79.5365 31.7554 79.5978 32.0372C79.6066 32.1592 79.6401 32.3407 79.6984 32.5818C79.7946 32.7793 79.8733 33.0189 79.9345 33.3007C80.0365 33.5795 80.1371 33.838 80.2362 34.0762C80.3353 34.3143 80.4503 34.49 80.5814 34.6032C80.7909 34.0976 81.0425 33.3232 81.3362 32.28C81.6706 31.2339 82.0037 30.1675 82.3352 29.0807C82.7075 27.991 83.0493 27.0466 83.3606 26.2475C83.7097 25.4047 84.0269 24.9731 84.3123 24.9526C84.6384 24.9291 84.9077 24.971 85.1203 25.0784C85.3329 25.1857 85.6052 25.2683 85.9372 25.3262C86.3565 25.4596 86.5764 25.6686 86.5969 25.9533C86.6144 26.1973 86.6771 26.4994 86.785 26.8596C86.9016 27.3418 87.0708 27.9837 87.2923 28.7854C87.5518 29.5435 87.8316 30.3001 88.1317 31.0552C88.429 31.7697 88.7597 32.3796 89.1238 32.8848C89.488 33.3901 89.8331 33.631 90.1592 33.6075C90.3223 33.5958 90.5318 33.3763 90.7879 32.949C91.0411 32.4811 91.4108 32.2093 91.897 32.1334C91.9785 32.1275 92.1256 32.1783 92.3382 32.2856C92.5478 32.3523 92.7604 32.4596 92.976 32.6077Z" fill="white"/>
<path d="M107.685 29.6484C107.75 30.5431 107.689 31.406 107.503 32.237C107.317 33.068 107.042 33.8032 106.678 34.4426C106.314 35.082 105.86 35.6052 105.316 36.0123C104.809 36.3758 104.23 36.581 103.578 36.628C102.436 36.7101 101.516 36.4492 100.817 35.8454C100.118 35.2416 99.5545 34.5259 99.1261 33.6982C98.7386 32.8676 98.4529 32.0296 98.2692 31.1843C98.1233 30.2954 98.0342 29.6273 98.0021 29.1799C97.9494 28.4479 97.9928 27.6271 98.1322 26.7177C98.3095 25.7647 98.5538 24.8886 98.865 24.0895C99.2171 23.2874 99.6186 22.6044 100.07 22.0405C100.521 21.4766 101.011 21.1755 101.541 21.1374C101.664 21.1286 101.85 21.1561 102.1 21.2198C102.392 21.2806 102.686 21.3821 102.983 21.5243C103.28 21.6664 103.539 21.8522 103.76 22.0815C104.023 22.308 104.206 22.5809 104.311 22.9004C104.762 22.9088 105.222 23.0393 105.691 23.2917C106.16 23.5441 106.421 23.7502 106.473 23.91C106.876 24.9439 107.155 25.9867 107.313 27.0383C107.511 28.0869 107.635 28.957 107.685 29.6484ZM104.855 28.7482C104.811 28.1382 104.704 27.5122 104.535 26.8702C104.363 26.1876 104.069 25.5138 103.652 24.8488C103.574 24.8954 103.473 24.923 103.351 24.9318C103.188 24.9436 103.044 24.9335 102.918 24.9016C102.834 24.8668 102.751 24.8523 102.669 24.8582C102.18 24.8934 101.803 25.0636 101.538 25.3688C101.271 25.6334 101.071 25.9952 100.94 26.4543C100.847 26.8698 100.798 27.3231 100.792 27.8141C100.787 28.305 100.8 28.7742 100.832 29.2216C100.864 29.669 100.921 30.1759 101.003 30.7423C101.082 31.2681 101.2 31.7706 101.357 32.2499C101.556 32.7262 101.79 33.1386 102.061 33.487C102.329 33.7948 102.667 33.934 103.075 33.9047C103.482 33.8754 103.814 33.6471 104.07 33.2198C104.323 32.7519 104.511 32.2274 104.633 31.6463C104.755 31.0652 104.817 30.5088 104.82 29.9771C104.861 29.4019 104.872 28.9922 104.855 28.7482Z" fill="white"/>
<path fill-rule="evenodd" clip-rule="evenodd" d="M114.294 57.102C114.146 58.2756 113.428 59.1354 112.681 59.0283C74.585 53.5645 22.2576 64.2396 0.618209 70.3487C22.3288 64.2196 74.7892 49.3637 113.224 54.7892C113.968 54.8943 114.442 55.933 114.294 57.102Z" fill="#FFB800"/>
</svg>
