<svg width="102" height="17" viewBox="0 0 102 17" fill="none" xmlns="http://www.w3.org/2000/svg">
<path d="M0.396484 16V0.359375H5.875C7.77279 0.359375 9.21224 0.724609 10.1934 1.45508C11.1745 2.17839 11.665 3.24186 11.665 4.64551C11.665 5.41178 11.4681 6.08854 11.0742 6.67578C10.6803 7.25586 10.1325 7.68197 9.43066 7.9541C10.2327 8.15462 10.863 8.55924 11.3213 9.16797C11.7868 9.77669 12.0195 10.5215 12.0195 11.4023C12.0195 12.9062 11.5397 14.0449 10.5801 14.8184C9.62044 15.5918 8.2526 15.9857 6.47656 16H0.396484ZM3.61914 9.18945V13.4111H6.37988C7.139 13.4111 7.72982 13.2321 8.15234 12.874C8.58203 12.5088 8.79688 12.0075 8.79688 11.3701C8.79688 9.93783 8.05566 9.21094 6.57324 9.18945H3.61914ZM3.61914 6.91211H6.00391C7.62956 6.88346 8.44238 6.23535 8.44238 4.96777C8.44238 4.25879 8.2347 3.75033 7.81934 3.44238C7.41113 3.12728 6.76302 2.96973 5.875 2.96973H3.61914V6.91211Z" fill="white"/>
<path d="M23.8574 9.22168H17.6699V13.4111H24.9316V16H14.4473V0.359375H24.9102V2.96973H17.6699V6.69727H23.8574V9.22168Z" fill="white"/>
<path d="M39.541 16H36.3184L30.0449 5.70898V16H26.8223V0.359375H30.0449L36.3291 10.6719V0.359375H39.541V16Z" fill="white"/>
<path d="M46.459 8.2334L44.2568 10.4033V16H42.9355V0.359375H44.2568V8.79199L52.2705 0.359375H53.9355L47.3828 7.32031L54.4404 16H52.8291L46.459 8.2334Z" fill="white"/>
<path d="M68.0293 9.02832C68.0293 10.4678 67.7786 11.7318 67.2773 12.8203C66.7832 13.9089 66.0742 14.7467 65.1504 15.334C64.2266 15.9212 63.1595 16.2148 61.9492 16.2148C60.123 16.2148 58.6478 15.5632 57.5234 14.2598C56.3991 12.9492 55.8369 11.1839 55.8369 8.96387V7.35254C55.8369 5.92741 56.0876 4.66699 56.5889 3.57129C57.0973 2.46842 57.8135 1.62337 58.7373 1.03613C59.6611 0.441732 60.7246 0.144531 61.9277 0.144531C63.1309 0.144531 64.1908 0.43457 65.1074 1.01465C66.0312 1.59473 66.7438 2.41471 67.2451 3.47461C67.7464 4.53451 68.0078 5.7627 68.0293 7.15918V9.02832ZM66.708 7.33105C66.708 5.44759 66.2819 3.97233 65.4297 2.90527C64.5775 1.83822 63.4102 1.30469 61.9277 1.30469C60.474 1.30469 59.3138 1.8418 58.4473 2.91602C57.5879 3.98307 57.1582 5.47624 57.1582 7.39551V9.02832C57.1582 10.8831 57.5879 12.3548 58.4473 13.4434C59.3066 14.5247 60.474 15.0654 61.9492 15.0654C63.446 15.0654 64.6133 14.5319 65.4512 13.4648C66.2891 12.3906 66.708 10.8975 66.708 8.98535V7.33105Z" fill="white"/>
<path d="M80.2109 12.1543C80.2109 11.2878 79.9066 10.6038 79.2979 10.1025C78.6891 9.59408 77.5755 9.11426 75.957 8.66309C74.3385 8.20475 73.1569 7.70703 72.4121 7.16992C71.3522 6.41081 70.8223 5.41536 70.8223 4.18359C70.8223 2.98763 71.3128 2.01725 72.2939 1.27246C73.2822 0.520508 74.5426 0.144531 76.0752 0.144531C77.1136 0.144531 78.041 0.345052 78.8574 0.746094C79.681 1.14714 80.3184 1.70573 80.7695 2.42188C81.2207 3.13802 81.4463 3.93652 81.4463 4.81738H80.1143C80.1143 3.75033 79.749 2.89453 79.0186 2.25C78.2881 1.59831 77.307 1.27246 76.0752 1.27246C74.8792 1.27246 73.9268 1.54102 73.2178 2.07812C72.5088 2.60807 72.1543 3.30273 72.1543 4.16211C72.1543 4.95703 72.473 5.60514 73.1104 6.10645C73.7477 6.60775 74.7682 7.05176 76.1719 7.43848C77.5755 7.81803 78.639 8.21549 79.3623 8.63086C80.0856 9.03906 80.6299 9.52962 80.9951 10.1025C81.3604 10.6755 81.543 11.3522 81.543 12.1328C81.543 13.3646 81.0488 14.3529 80.0605 15.0977C79.0794 15.8424 77.7832 16.2148 76.1719 16.2148C75.069 16.2148 74.0557 16.0179 73.1318 15.624C72.2152 15.2301 71.5169 14.6787 71.0371 13.9697C70.5645 13.2607 70.3281 12.4479 70.3281 11.5312H71.6494C71.6494 12.6341 72.0612 13.5042 72.8848 14.1416C73.7083 14.779 74.804 15.0977 76.1719 15.0977C77.3893 15.0977 78.3669 14.8291 79.1045 14.292C79.8421 13.7549 80.2109 13.0423 80.2109 12.1543Z" fill="white"/>
<path d="M95.9912 16H94.6592V8.50195H85.7217V16H84.4004V0.359375H85.7217V7.38477H94.6592V0.359375H95.9912V16Z" fill="white"/>
<circle cx="100.5" cy="14.5" r="1.5" fill="#FFB800"/>
</svg>
